<svg xmlns="http://www.w3.org/2000/svg" width="22" height="22" fill="#fff"><path d="M20.585 8.873c-.257-.208-.685-.555-.739-.72-.055-.171.086-.721.171-1.048.203-.79.456-1.773-.111-2.546s-1.577-.835-2.392-.89c-.337-.024-.903-.061-1.046-.165s-.362-.64-.492-.961c-.321-.795-.686-1.697-1.578-1.985s-1.698.224-2.412.675c-.315.198-.788.498-.986.498-.19 0-.658-.305-.969-.506C9.344.779 8.486.227 7.581.534c-.89.303-1.252 1.199-1.573 1.988-.129.318-.344.849-.491.957s-.719.145-1.063.167c-.859.058-1.833.124-2.38.898-.537.761-.296 1.699-.084 2.527.084.329.225.88.175 1.045-.055.157-.478.505-.731.714C.795 9.358 0 10.014 0 10.995c0 .975.78 1.624 1.406 2.144.272.225.682.566.737.736s-.087.711-.173 1.036c-.207.797-.466 1.79.122 2.57.574.758 1.583.825 2.395.88.337.024.902.06 1.046.165s.36.639.49.96c.322.796.686 1.697 1.579 1.986a1.68 1.68 0 0 0 .529.084c.684 0 1.315-.4 1.884-.758.314-.198.786-.498.985-.498s.659.296.966.493c.682.434 1.533.977 2.436.668.889-.303 1.251-1.198 1.572-1.989.129-.317.344-.849.491-.957s.716-.145 1.058-.167c.853-.058 1.82-.123 2.376-.886s.319-1.715.107-2.55c-.083-.326-.221-.871-.171-1.035.055-.157.478-.506.73-.714.64-.527 1.436-1.184 1.436-2.165 0-.974-.785-1.611-1.416-2.123zm-1.175 2.886c-.532.437-1.082.891-1.298 1.541-.221.662-.041 1.371.133 2.057l.207 1.009c-.138.104-.708.143-1.049.165-.675.045-1.441.096-2.011.515-.564.414-.838 1.089-1.103 1.742-.129.322-.347.861-.437.943-.165 0-.628-.297-.905-.474-.572-.364-1.22-.777-1.945-.777s-1.379.415-1.957.78l-.849.496c-.141-.101-.355-.634-.485-.952-.267-.661-.544-1.344-1.114-1.754s-1.288-.456-1.987-.503c-.328-.022-.94-.063-1.051-.138-.056-.161.086-.711.173-1.038.168-.648.36-1.383.144-2.054s-.795-1.151-1.305-1.575c-.249-.207-.714-.594-.753-.734.041-.171.518-.565.775-.775.532-.438 1.082-.892 1.298-1.542.223-.666.039-1.381-.137-2.072l-.218-.998c.139-.1.705-.138 1.043-.161.71-.047 1.446-.097 2.016-.515s.838-1.088 1.103-1.741l.432-.942c.168.003.635.306.915.487.576.375 1.231.799 1.959.799s1.38-.415 1.956-.779l.849-.496c.14.101.356.634.485.952.267.66.544 1.343 1.114 1.753s1.289.457 1.989.504c.346.024.925.063 1.033.128.055.16-.086.713-.171 1.042-.166.651-.355 1.388-.138 2.061s.805 1.153 1.323 1.572c.236.193.672.545.739.714-.064.177-.522.555-.77.76zm-4.345-4.188c-.387-.324-.959-.271-1.28.114l-4.054 4.847-1.725-1.724a.91.91 0 0 0-1.286 0 .91.91 0 0 0 0 1.286l2.427 2.427c.17.172.402.266.643.266l.039-.002c.256-.011.494-.129.657-.324l4.691-5.609a.91.91 0 0 0-.114-1.28z"/></svg>