<svg xmlns="http://www.w3.org/2000/svg" width="18" height="18" fill="none"><g opacity=".25" clip-path="url(#A)" fill="#2e3644"><path d="M7.927 0A7.94 7.94 0 0 0 0 7.927a7.94 7.94 0 0 0 7.927 7.927 7.94 7.94 0 0 0 7.927-7.927A7.94 7.94 0 0 0 7.927 0zm0 14.39c-3.564 0-6.463-2.9-6.463-6.463s2.9-6.463 6.463-6.463 6.463 2.9 6.463 6.463-2.899 6.463-6.463 6.463z"/><path d="M17.786 16.751l-4.195-4.195a.73.73 0 1 0-1.035 1.035l4.195 4.195a.73.73 0 0 0 1.035 0 .73.73 0 0 0 0-1.035z"/></g><defs><clipPath id="A"><path fill="#fff" d="M0 0h18v18H0z"/></clipPath></defs></svg>